<svg xmlns="http://www.w3.org/2000/svg" xmlns:se="http://svg-edit.googlecode.com" xmlns:xlink="http://www.w3.org/1999/xlink" xmlns:dc="http://purl.org/dc/elements/1.1/" xmlns:cc="http://creativecommons.org/ns#" xmlns:rdf="http://www.w3.org/1999/02/22-rdf-syntax-ns#" xmlns:inkscape="http://www.inkscape.org/namespaces/inkscape" width="64" height="64" style="">                                    <title>my vector image</title>                                    <!-- Created with Vector Paint - http://www.vectorpaint.yaks.com/ https://chrome.google.com/webstore/detail/hnbpdiengicdefcjecjbnjnoifekhgdo -->                                    <rect id="backgroundrect" width="100%" height="100%" x="0" y="0" fill="#FFFFFF" stroke="none" class="" style=""/>                                <g class="currentLayer" style=""><title>Layer 1</title><path fill="#ffffff" fill-opacity="1" stroke="#b8b804" stroke-opacity="1" stroke-width="2" stroke-dasharray="none" stroke-linejoin="round" stroke-linecap="butt" stroke-dashoffset="" fill-rule="nonzero" opacity="1" marker-start="" marker-mid="" marker-end="" d="M-25.14285719394684,-0.5714285969734192 C-25.14285719394684,-1.676400972664027 -24.247829569637446,-2.571428596973419 -23.14285719394684,-2.571428596973419 C-22.03788481825623,-2.571428596973419 -21.14285719394684,-1.676400972664027 -21.14285719394684,-0.5714285969734192 C-21.14285719394684,0.5335437787171886 -22.03788481825623,1.4285714030265808 -23.14285719394684,1.4285714030265808 C-24.247829569637446,1.4285714030265808 -25.14285719394684,0.5335437787171886 -25.14285719394684,-0.5714285969734192 z" id="svg_2" class=""/><path fill="#ffffff" fill-opacity="1" stroke="#b8b804" stroke-opacity="1" stroke-width="2" stroke-dasharray="none" stroke-linejoin="round" stroke-linecap="butt" stroke-dashoffset="" fill-rule="nonzero" opacity="1" marker-start="" marker-mid="" marker-end="" d="M-1.9999997168779375,-24.85714226961136 C-1.9999997168779375,-25.962114645301966 -1.104972092568545,-26.85714226961136 2.8312206271086104e-7,-26.85714226961136 C1.1049726588126703,-26.85714226961136 2.0000002831220627,-25.962114645301966 2.0000002831220627,-24.85714226961136 C2.0000002831220627,-23.75216989392075 1.1049726588126703,-22.85714226961136 2.8312206271086104e-7,-22.85714226961136 C-1.104972092568545,-22.85714226961136 -1.9999997168779375,-23.75216989392075 -1.9999997168779375,-24.85714226961136 z" class="" id="svg_5"/></g></svg>